<svg width="820" height="364" viewBox="0 0 820 364" fill="none" xmlns="http://www.w3.org/2000/svg">
<g filter="url(#filter0_f_74_11847)">
<circle cx="182" cy="182" r="32" fill="#5DADED"/>
</g>
<g filter="url(#filter1_f_74_11847)">
<circle cx="296" cy="182" r="32" fill="#AA8ED6"/>
</g>
<g filter="url(#filter2_f_74_11847)">
<circle cx="410" cy="182" r="32" fill="#F0B1C4"/>
</g>
<g filter="url(#filter3_f_74_11847)">
<circle cx="524" cy="182" r="32" fill="#DD2E44"/>
</g>
<g filter="url(#filter4_f_74_11847)">
<circle cx="638" cy="182" r="32" fill="black"/>
</g>
<mask id="path-6-outside-1_74_11847" maskUnits="userSpaceOnUse" x="91" y="101" width="108" height="147" fill="black">
<rect fill="white" x="91" y="101" width="108" height="147"/>
<path d="M141.875 105.062H148.75C179.5 114.479 194.875 129.292 194.875 149.5C194.875 167.125 180.646 181.938 152.188 193.938H129.938L126.5 192.25L124.812 195.688C129.354 215.354 131.625 227.875 131.625 233.25C131.625 237.833 128.208 241.25 121.375 243.5C111.875 243.5 105.042 216.729 100.875 163.188L95.75 129C95.75 121.875 103.729 116.75 119.688 113.625C119.688 110.208 127.083 107.354 141.875 105.062ZM118 140.938C118 161.479 121.979 171.75 129.938 171.75H147.062C155.521 171.75 164.062 165.479 172.688 152.938V147.812C172.688 137.562 163 130.146 143.625 125.562C126.542 129.688 118 134.812 118 140.938Z"/>
</mask>
<path d="M141.875 105.062H148.75C179.5 114.479 194.875 129.292 194.875 149.5C194.875 167.125 180.646 181.938 152.188 193.938H129.938L126.5 192.25L124.812 195.688C129.354 215.354 131.625 227.875 131.625 233.25C131.625 237.833 128.208 241.25 121.375 243.5C111.875 243.5 105.042 216.729 100.875 163.188L95.75 129C95.75 121.875 103.729 116.75 119.688 113.625C119.688 110.208 127.083 107.354 141.875 105.062ZM118 140.938C118 161.479 121.979 171.75 129.938 171.75H147.062C155.521 171.75 164.062 165.479 172.688 152.938V147.812C172.688 137.562 163 130.146 143.625 125.562C126.542 129.688 118 134.812 118 140.938Z" fill="#FFFBFA"/>
<path d="M141.875 105.062V101.062H141.567L141.263 101.11L141.875 105.062ZM148.75 105.062L149.921 101.238L149.349 101.062H148.75V105.062ZM152.188 193.938V197.938H152.996L153.742 197.623L152.188 193.938ZM129.938 193.938L128.175 197.528L129.009 197.938H129.938V193.938ZM126.5 192.25L128.263 188.659L124.672 186.897L122.909 190.487L126.5 192.25ZM124.812 195.688L121.222 193.925L120.595 195.202L120.915 196.588L124.812 195.688ZM121.375 243.5V247.5H122.017L122.626 247.299L121.375 243.5ZM100.875 163.188L104.863 162.877L104.852 162.735L104.831 162.594L100.875 163.188ZM95.75 129H91.75V129.298L91.7942 129.593L95.75 129ZM119.688 113.625L120.456 117.55L123.688 116.918V113.625H119.688ZM172.688 152.938L175.983 155.204L176.688 154.18V152.938H172.688ZM143.625 125.562L144.546 121.67L143.615 121.45L142.686 121.674L143.625 125.562ZM141.875 109.062H148.75V101.062H141.875V109.062ZM147.579 108.887C162.631 113.497 173.505 119.31 180.569 126.115C187.523 132.815 190.875 140.549 190.875 149.5H198.875C198.875 138.242 194.54 128.466 186.119 120.354C177.807 112.346 165.619 106.045 149.921 101.238L147.579 108.887ZM190.875 149.5C190.875 164.529 178.805 178.373 150.633 190.252L153.742 197.623C182.487 185.502 198.875 169.721 198.875 149.5H190.875ZM152.188 189.938H129.938V197.938H152.188V189.938ZM131.7 190.347L128.263 188.659L124.737 195.841L128.175 197.528L131.7 190.347ZM122.909 190.487L121.222 193.925L128.403 197.45L130.091 194.013L122.909 190.487ZM120.915 196.588C123.179 206.39 124.867 214.369 125.986 220.542C127.121 226.798 127.625 230.958 127.625 233.25H135.625C135.625 230.167 134.994 225.379 133.858 219.114C132.706 212.766 130.988 204.651 128.71 194.787L120.915 196.588ZM127.625 233.25C127.625 235.178 126.416 237.629 120.124 239.701L122.626 247.299C130 244.871 135.625 240.488 135.625 233.25H127.625ZM121.375 239.5C121.127 239.5 119.968 239.353 118.165 236.397C116.43 233.555 114.673 228.986 113.001 222.433C109.672 209.39 106.942 189.59 104.863 162.877L96.8871 163.498C98.9749 190.326 101.745 210.683 105.249 224.411C106.993 231.243 108.986 236.714 111.335 240.564C113.615 244.301 116.873 247.5 121.375 247.5V239.5ZM104.831 162.594L99.7058 128.407L91.7942 129.593L96.9192 163.781L104.831 162.594ZM99.75 129C99.75 127.236 100.629 125.277 103.896 123.178C107.261 121.016 112.67 119.075 120.456 117.55L118.919 109.7C110.747 111.3 104.186 113.484 99.5727 116.447C94.8609 119.473 91.75 123.639 91.75 129H99.75ZM123.688 113.625C123.688 114.375 123.243 114.573 123.661 114.219C124.096 113.85 125.013 113.295 126.675 112.654C129.965 111.384 135.172 110.149 142.487 109.015L141.263 101.11C133.786 102.268 127.9 103.606 123.794 105.19C121.758 105.976 119.901 106.918 118.487 108.117C117.056 109.331 115.688 111.166 115.688 113.625H123.688ZM114 140.938C114 151.351 114.993 159.654 117.255 165.492C118.397 168.442 119.956 171.007 122.106 172.856C124.332 174.772 127.002 175.75 129.938 175.75V167.75C128.894 167.75 128.082 167.444 127.324 166.792C126.489 166.074 125.561 164.787 124.714 162.602C122.997 158.169 122 151.066 122 140.938H114ZM129.938 175.75H147.062V167.75H129.938V175.75ZM147.062 175.75C157.606 175.75 167.191 167.989 175.983 155.204L169.392 150.671C160.934 162.97 153.436 167.75 147.062 167.75V175.75ZM176.688 152.938V147.812H168.688V152.938H176.688ZM176.688 147.812C176.688 141.198 173.475 135.69 167.853 131.386C162.367 127.186 154.477 124.019 144.546 121.67L142.704 129.455C152.148 131.689 158.789 134.522 162.99 137.739C167.057 140.852 168.688 144.177 168.688 147.812H176.688ZM142.686 121.674C134.003 123.771 127.135 126.198 122.348 129.07C117.659 131.883 114 135.747 114 140.938H122C122 140.003 122.612 138.242 126.464 135.93C130.219 133.677 136.164 131.479 144.564 129.451L142.686 121.674Z" fill="#101828" mask="url(#path-6-outside-1_74_11847)"/>
<mask id="path-8-outside-2_74_11847" maskUnits="userSpaceOnUse" x="175" y="114" width="108" height="134" fill="black">
<rect fill="white" x="175" y="114" width="108" height="134"/>
<path d="M188.312 118.75C195.146 121.083 198.562 125.646 198.562 132.438V137.562C198.562 155.271 201.417 182.625 207.125 219.625C233.042 215.042 252.979 212.75 266.938 212.75C274.896 212.75 278.875 216.75 278.875 224.75C278.875 231.583 267.479 235 244.688 235L200.25 243.5C192.208 243.5 187.083 223.562 184.875 183.688C181.458 170.354 179.75 153.271 179.75 132.438V125.562C180.25 123.229 183.104 120.958 188.312 118.75Z"/>
</mask>
<path d="M188.312 118.75C195.146 121.083 198.562 125.646 198.562 132.438V137.562C198.562 155.271 201.417 182.625 207.125 219.625C233.042 215.042 252.979 212.75 266.938 212.75C274.896 212.75 278.875 216.75 278.875 224.75C278.875 231.583 267.479 235 244.688 235L200.25 243.5C192.208 243.5 187.083 223.562 184.875 183.688C181.458 170.354 179.75 153.271 179.75 132.438V125.562C180.25 123.229 183.104 120.958 188.312 118.75Z" fill="#FFFBFA"/>
<path d="M188.312 118.75L189.605 114.965L188.158 114.471L186.751 115.067L188.312 118.75ZM207.125 219.625L203.172 220.235L203.795 224.276L207.822 223.564L207.125 219.625ZM244.688 235V231H244.308L243.936 231.071L244.688 235ZM200.25 243.5V247.5H200.629L201.001 247.429L200.25 243.5ZM184.875 183.688L188.869 183.466L188.847 183.075L188.75 182.695L184.875 183.688ZM179.75 125.562L175.839 124.724L175.75 125.139V125.562H179.75ZM187.02 122.535C189.878 123.511 191.687 124.835 192.798 126.32C193.895 127.784 194.562 129.736 194.562 132.438H202.562C202.562 128.348 201.522 124.623 199.202 121.524C196.897 118.446 193.58 116.322 189.605 114.965L187.02 122.535ZM194.562 132.438V137.562H202.562V132.438H194.562ZM194.562 137.562C194.562 155.595 197.459 183.204 203.172 220.235L211.078 219.015C205.375 182.046 202.562 154.946 202.562 137.562H194.562ZM207.822 223.564C233.672 218.992 253.335 216.75 266.938 216.75V208.75C252.624 208.75 232.411 211.091 206.428 215.686L207.822 223.564ZM266.938 216.75C270.295 216.75 272.079 217.59 273.055 218.571C274.034 219.556 274.875 221.361 274.875 224.75H282.875C282.875 220.139 281.726 215.944 278.726 212.929C275.723 209.91 271.539 208.75 266.938 208.75V216.75ZM274.875 224.75C274.875 225.179 274.758 225.635 274.063 226.26C273.254 226.989 271.744 227.837 269.179 228.606C264.054 230.143 255.981 231 244.688 231V239C256.185 239 265.206 238.149 271.477 236.269C274.61 235.33 277.374 234.043 279.413 232.208C281.567 230.271 282.875 227.737 282.875 224.75H274.875ZM243.936 231.071L199.499 239.571L201.001 247.429L245.439 238.929L243.936 231.071ZM200.25 239.5C200.155 239.5 199.392 239.508 198.103 237.557C196.817 235.61 195.488 232.369 194.249 227.551C191.787 217.973 189.969 203.338 188.869 183.466L180.881 183.909C181.989 203.912 183.838 219.183 186.501 229.543C187.825 234.693 189.423 238.93 191.428 241.966C193.431 245 196.325 247.5 200.25 247.5V239.5ZM188.75 182.695C185.447 169.806 183.75 153.089 183.75 132.438H175.75C175.75 153.453 177.47 170.902 181 184.68L188.75 182.695ZM183.75 132.438V125.562H175.75V132.438H183.75ZM183.661 126.401C183.638 126.51 183.688 126.089 184.756 125.24C185.789 124.417 187.441 123.464 189.874 122.433L186.751 115.067C183.975 116.244 181.596 117.53 179.775 118.979C177.989 120.401 176.362 122.282 175.839 124.724L183.661 126.401Z" fill="#101828" mask="url(#path-8-outside-2_74_11847)"/>
<mask id="path-10-outside-3_74_11847" maskUnits="userSpaceOnUse" x="259" y="114" width="108" height="134" fill="black">
<rect fill="white" x="259" y="114" width="108" height="134"/>
<path d="M272.312 118.75C279.146 121.083 282.562 125.646 282.562 132.438V137.562C282.562 155.271 285.417 182.625 291.125 219.625C317.042 215.042 336.979 212.75 350.938 212.75C358.896 212.75 362.875 216.75 362.875 224.75C362.875 231.583 351.479 235 328.688 235L284.25 243.5C276.208 243.5 271.083 223.562 268.875 183.688C265.458 170.354 263.75 153.271 263.75 132.438V125.562C264.25 123.229 267.104 120.958 272.312 118.75Z"/>
</mask>
<path d="M272.312 118.75C279.146 121.083 282.562 125.646 282.562 132.438V137.562C282.562 155.271 285.417 182.625 291.125 219.625C317.042 215.042 336.979 212.75 350.938 212.75C358.896 212.75 362.875 216.75 362.875 224.75C362.875 231.583 351.479 235 328.688 235L284.25 243.5C276.208 243.5 271.083 223.562 268.875 183.688C265.458 170.354 263.75 153.271 263.75 132.438V125.562C264.25 123.229 267.104 120.958 272.312 118.75Z" fill="#FFFBFA"/>
<path d="M272.312 118.75L273.605 114.965L272.158 114.471L270.751 115.067L272.312 118.75ZM291.125 219.625L287.172 220.235L287.795 224.276L291.822 223.564L291.125 219.625ZM328.688 235V231H328.308L327.936 231.071L328.688 235ZM284.25 243.5V247.5H284.629L285.001 247.429L284.25 243.5ZM268.875 183.688L272.869 183.466L272.847 183.075L272.75 182.695L268.875 183.688ZM263.75 125.562L259.839 124.724L259.75 125.139V125.562H263.75ZM271.02 122.535C273.878 123.511 275.687 124.835 276.798 126.32C277.895 127.784 278.562 129.736 278.562 132.438H286.562C286.562 128.348 285.522 124.623 283.202 121.524C280.897 118.446 277.58 116.322 273.605 114.965L271.02 122.535ZM278.562 132.438V137.562H286.562V132.438H278.562ZM278.562 137.562C278.562 155.595 281.459 183.204 287.172 220.235L295.078 219.015C289.375 182.046 286.562 154.946 286.562 137.562H278.562ZM291.822 223.564C317.672 218.992 337.335 216.75 350.938 216.75V208.75C336.624 208.75 316.411 211.091 290.428 215.686L291.822 223.564ZM350.938 216.75C354.295 216.75 356.079 217.59 357.055 218.571C358.034 219.556 358.875 221.361 358.875 224.75H366.875C366.875 220.139 365.726 215.944 362.726 212.929C359.723 209.91 355.539 208.75 350.938 208.75V216.75ZM358.875 224.75C358.875 225.179 358.758 225.635 358.063 226.26C357.254 226.989 355.744 227.837 353.179 228.606C348.054 230.143 339.981 231 328.688 231V239C340.185 239 349.206 238.149 355.477 236.269C358.61 235.33 361.374 234.043 363.413 232.208C365.567 230.271 366.875 227.737 366.875 224.75H358.875ZM327.936 231.071L283.499 239.571L285.001 247.429L329.439 238.929L327.936 231.071ZM284.25 239.5C284.155 239.5 283.392 239.508 282.103 237.557C280.817 235.61 279.488 232.369 278.249 227.551C275.787 217.973 273.969 203.338 272.869 183.466L264.881 183.909C265.989 203.912 267.838 219.183 270.501 229.543C271.825 234.693 273.423 238.93 275.428 241.966C277.431 245 280.325 247.5 284.25 247.5V239.5ZM272.75 182.695C269.447 169.806 267.75 153.089 267.75 132.438H259.75C259.75 153.453 261.47 170.902 265 184.68L272.75 182.695ZM267.75 132.438V125.562H259.75V132.438H267.75ZM267.661 126.401C267.638 126.51 267.688 126.089 268.756 125.24C269.789 124.417 271.441 123.464 273.874 122.433L270.751 115.067C267.975 116.244 265.596 117.53 263.775 118.979C261.989 120.401 260.362 122.282 259.839 124.724L267.661 126.401Z" fill="#101828" mask="url(#path-10-outside-3_74_11847)"/>
<mask id="path-12-outside-4_74_11847" maskUnits="userSpaceOnUse" x="343" y="104" width="88" height="149" fill="black">
<rect fill="white" x="343" y="104" width="88" height="149"/>
<path d="M388.75 108.5C396.75 109.375 400.75 113.354 400.75 120.438V123.875C399.167 128.417 394.604 130.688 387.062 130.688V135.812C387.062 141.896 392.188 170.958 402.438 223C403.604 223 404.188 223.583 404.188 224.75L407.562 223H421.25C424.667 224.167 426.375 227.583 426.375 233.25C426.375 237.833 424.104 241.25 419.562 243.5H411L368.25 248.625L364.875 243.5V235C366.375 230.417 371.5 228.125 380.25 228.125V221.312C380.25 217.229 375.688 187.021 366.562 130.688H352.875C350.917 130.688 349.208 127.854 347.75 122.188C347.75 114.188 352.875 110.188 363.125 110.188H381.938C384.521 110.188 386.792 109.625 388.75 108.5Z"/>
</mask>
<path d="M388.75 108.5C396.75 109.375 400.75 113.354 400.75 120.438V123.875C399.167 128.417 394.604 130.688 387.062 130.688V135.812C387.062 141.896 392.188 170.958 402.438 223C403.604 223 404.188 223.583 404.188 224.75L407.562 223H421.25C424.667 224.167 426.375 227.583 426.375 233.25C426.375 237.833 424.104 241.25 419.562 243.5H411L368.25 248.625L364.875 243.5V235C366.375 230.417 371.5 228.125 380.25 228.125V221.312C380.25 217.229 375.688 187.021 366.562 130.688H352.875C350.917 130.688 349.208 127.854 347.75 122.188C347.75 114.188 352.875 110.188 363.125 110.188H381.938C384.521 110.188 386.792 109.625 388.75 108.5Z" fill="#FFFBFA"/>
<path d="M388.75 108.5L389.185 104.524L387.888 104.382L386.758 105.032L388.75 108.5ZM400.75 123.875L404.527 125.192L404.75 124.552V123.875H400.75ZM387.062 130.688V126.688H383.062V130.688H387.062ZM402.438 223L398.513 223.773L399.148 227H402.438V223ZM404.188 224.75H400.188V231.33L406.029 228.301L404.188 224.75ZM407.562 223V219H406.587L405.721 219.449L407.562 223ZM421.25 223L422.543 219.215L421.914 219H421.25V223ZM419.562 243.5V247.5H420.499L421.338 247.084L419.562 243.5ZM411 243.5V239.5H410.761L410.524 239.528L411 243.5ZM368.25 248.625L364.909 250.825L366.27 252.891L368.726 252.597L368.25 248.625ZM364.875 243.5H360.875V244.699L361.534 245.7L364.875 243.5ZM364.875 235L361.073 233.756L360.875 234.362V235H364.875ZM380.25 228.125V232.125H384.25V228.125H380.25ZM366.562 130.688L370.511 130.048L369.967 126.688H366.562V130.688ZM347.75 122.188H343.75V122.694L343.876 123.184L347.75 122.188ZM388.315 112.476C391.789 112.856 393.797 113.85 394.929 114.976C395.993 116.035 396.75 117.673 396.75 120.438H404.75C404.75 116.118 403.507 112.226 400.571 109.305C397.703 106.452 393.711 105.019 389.185 104.524L388.315 112.476ZM396.75 120.438V123.875H404.75V120.438H396.75ZM396.973 122.558C396.247 124.64 394.03 126.688 387.062 126.688V134.688C395.179 134.688 402.086 132.194 404.527 125.192L396.973 122.558ZM383.062 130.688V135.812H391.062V130.688H383.062ZM383.062 135.812C383.062 137.67 383.431 140.91 384.065 145.261C384.714 149.71 385.683 155.584 386.967 162.867C389.536 177.437 393.386 197.743 398.513 223.773L406.362 222.227C401.239 196.215 397.401 175.97 394.845 161.477C393.567 154.229 392.614 148.443 391.982 144.106C391.335 139.671 391.062 136.997 391.062 135.812H383.062ZM402.438 227C402.404 227 401.645 226.989 400.922 226.266C400.199 225.543 400.188 224.783 400.188 224.75H408.188C408.188 223.55 407.885 221.915 406.578 220.609C405.272 219.303 403.637 219 402.438 219V227ZM406.029 228.301L409.404 226.551L405.721 219.449L402.346 221.199L406.029 228.301ZM407.562 227H421.25V219H407.562V227ZM419.957 226.785C420.89 227.104 422.375 228.155 422.375 233.25H430.375C430.375 227.012 428.443 221.229 422.543 219.215L419.957 226.785ZM422.375 233.25C422.375 234.85 421.99 236.059 421.341 237.036C420.676 238.036 419.575 239.03 417.787 239.916L421.338 247.084C424.092 245.72 426.397 243.881 428.003 241.464C429.625 239.024 430.375 236.234 430.375 233.25H422.375ZM419.562 239.5H411V247.5H419.562V239.5ZM410.524 239.528L367.774 244.653L368.726 252.597L411.476 247.472L410.524 239.528ZM371.591 246.425L368.216 241.3L361.534 245.7L364.909 250.825L371.591 246.425ZM368.875 243.5V235H360.875V243.5H368.875ZM368.677 236.244C369.278 234.406 371.684 232.125 380.25 232.125V224.125C371.316 224.125 363.472 226.427 361.073 233.756L368.677 236.244ZM384.25 228.125V221.312H376.25V228.125H384.25ZM384.25 221.312C384.25 219.964 383.915 217.002 383.36 212.824C382.785 208.503 381.925 202.557 380.783 194.996C378.499 179.871 375.074 158.219 370.511 130.048L362.614 131.327C367.176 159.489 370.595 181.108 372.873 196.191C374.012 203.735 374.864 209.627 375.429 213.879C376.014 218.274 376.25 220.619 376.25 221.312H384.25ZM366.562 126.688H352.875V134.688H366.562V126.688ZM352.875 126.688C354.064 126.688 354.192 127.561 353.551 126.497C352.994 125.574 352.318 123.889 351.624 121.191L343.876 123.184C344.64 126.152 345.548 128.717 346.699 130.628C347.767 132.398 349.728 134.688 352.875 134.688V126.688ZM351.75 122.188C351.75 119.105 352.687 117.408 354.055 116.341C355.611 115.126 358.41 114.188 363.125 114.188V106.188C357.59 106.188 352.701 107.249 349.133 110.034C345.375 112.967 343.75 117.27 343.75 122.188H351.75ZM363.125 114.188H381.938V106.188H363.125V114.188ZM381.938 114.188C385.118 114.188 388.095 113.489 390.742 111.968L386.758 105.032C385.488 105.761 383.924 106.188 381.938 106.188V114.188Z" fill="#101828" mask="url(#path-12-outside-4_74_11847)"/>
<mask id="path-14-outside-5_74_11847" maskUnits="userSpaceOnUse" x="427" y="109" width="96" height="151" fill="black">
<rect fill="white" x="427" y="109" width="96" height="151"/>
<path d="M515.5 113.625L518.938 118.75V122.188C518.938 130.146 514.938 134.125 506.938 134.125H483.062C461.396 137.542 450.562 140.958 450.562 144.375C451.688 161.042 453.396 170.167 455.688 171.75C461.438 169.458 475.104 167.75 496.688 166.625C503.521 166.625 506.938 170.042 506.938 176.875C506.938 184.833 494.979 188.812 471.062 188.812C461.938 188.812 457.375 189.958 457.375 192.25L464.25 245.25C464.25 247.375 461.396 250.792 455.688 255.5C445.438 255.5 440.312 240.688 440.312 211.062C439.146 211.062 436.292 189.979 431.75 147.812V134.125C431.75 127.917 434.604 123.354 440.312 120.438H447.125C474.25 115.896 497.042 113.625 515.5 113.625Z"/>
</mask>
<path d="M515.5 113.625L518.938 118.75V122.188C518.938 130.146 514.938 134.125 506.938 134.125H483.062C461.396 137.542 450.562 140.958 450.562 144.375C451.688 161.042 453.396 170.167 455.688 171.75C461.438 169.458 475.104 167.75 496.688 166.625C503.521 166.625 506.938 170.042 506.938 176.875C506.938 184.833 494.979 188.812 471.062 188.812C461.938 188.812 457.375 189.958 457.375 192.25L464.25 245.25C464.25 247.375 461.396 250.792 455.688 255.5C445.438 255.5 440.312 240.688 440.312 211.062C439.146 211.062 436.292 189.979 431.75 147.812V134.125C431.75 127.917 434.604 123.354 440.312 120.438H447.125C474.25 115.896 497.042 113.625 515.5 113.625Z" fill="#FFFBFA"/>
<path d="M515.5 113.625L518.822 111.397L517.634 109.625H515.5V113.625ZM518.938 118.75H522.938V117.533L522.259 116.522L518.938 118.75ZM483.062 134.125V130.125H482.749L482.439 130.174L483.062 134.125ZM450.562 144.375H446.562V144.51L446.572 144.644L450.562 144.375ZM455.688 171.75L453.414 175.041L455.177 176.259L457.168 175.466L455.688 171.75ZM496.688 166.625V162.625H496.583L496.479 162.63L496.688 166.625ZM457.375 192.25H453.375V192.508L453.408 192.765L457.375 192.25ZM464.25 245.25H468.25V244.992L468.217 244.735L464.25 245.25ZM455.688 255.5V259.5H457.124L458.233 258.586L455.688 255.5ZM440.312 211.062H444.312V207.062H440.312V211.062ZM431.75 147.812H427.75V148.027L427.773 148.241L431.75 147.812ZM440.312 120.438V116.438H439.35L438.493 116.876L440.312 120.438ZM447.125 120.438V124.438H447.458L447.786 124.383L447.125 120.438ZM512.178 115.853L515.616 120.978L522.259 116.522L518.822 111.397L512.178 115.853ZM514.938 118.75V122.188H522.938V118.75H514.938ZM514.938 122.188C514.938 125.545 514.097 127.329 513.116 128.305C512.132 129.284 510.326 130.125 506.938 130.125V138.125C511.549 138.125 515.743 136.976 518.759 133.976C521.778 130.973 522.938 126.789 522.938 122.188H514.938ZM506.938 130.125H483.062V138.125H506.938V130.125ZM482.439 130.174C471.555 131.89 463.192 133.635 457.484 135.435C454.659 136.326 452.246 137.303 450.46 138.429C448.925 139.397 446.562 141.292 446.562 144.375H454.562C454.562 145.75 453.554 145.936 454.728 145.196C455.65 144.614 457.299 143.882 459.891 143.065C465.016 141.448 472.904 139.776 483.686 138.076L482.439 130.174ZM446.572 144.644C447.138 153.032 447.859 159.662 448.756 164.455C449.203 166.841 449.717 168.903 450.331 170.548C450.87 171.992 451.758 173.897 453.414 175.041L457.961 168.459C458.471 168.811 458.286 168.982 457.825 167.749C457.44 166.717 457.027 165.159 456.619 162.983C455.808 158.65 455.112 152.385 454.553 144.106L446.572 144.644ZM457.168 175.466C459.531 174.524 463.942 173.57 470.746 172.719C477.446 171.882 486.153 171.18 496.896 170.62L496.479 162.63C485.639 163.195 476.721 163.91 469.754 164.781C462.891 165.639 457.594 166.684 454.207 168.034L457.168 175.466ZM496.688 170.625C499.488 170.625 500.853 171.322 501.547 172.016C502.24 172.71 502.938 174.075 502.938 176.875H510.938C510.938 172.842 509.926 169.082 507.203 166.359C504.48 163.636 500.721 162.625 496.688 162.625V170.625ZM502.938 176.875C502.938 178.193 502.166 180.216 496.706 182.033C491.351 183.815 482.904 184.812 471.062 184.812V192.812C483.137 192.812 492.628 191.821 499.232 189.624C505.73 187.461 510.938 183.515 510.938 176.875H502.938ZM471.062 184.812C466.418 184.812 462.595 185.096 459.823 185.792C458.456 186.135 457.009 186.658 455.823 187.551C454.524 188.53 453.375 190.114 453.375 192.25H461.375C461.375 193.241 460.796 193.821 460.637 193.941C460.592 193.975 460.856 193.781 461.771 193.551C463.561 193.102 466.582 192.812 471.062 192.812V184.812ZM453.408 192.765L460.283 245.765L468.217 244.735L461.342 191.735L453.408 192.765ZM460.25 245.25C460.25 244.78 460.41 245.201 459.04 246.842C457.84 248.277 455.913 250.129 453.142 252.414L458.233 258.586C461.17 256.163 463.524 253.952 465.179 251.971C466.663 250.195 468.25 247.845 468.25 245.25H460.25ZM455.688 251.5C453.132 251.5 450.29 249.884 447.936 243.083C445.597 236.321 444.312 225.752 444.312 211.062H436.312C436.312 225.998 437.591 237.648 440.376 245.699C443.148 253.709 447.993 259.5 455.688 259.5V251.5ZM440.312 207.062C441.844 207.062 442.781 207.917 443.076 208.223C443.414 208.573 443.58 208.889 443.619 208.962C443.709 209.135 443.703 209.175 443.626 208.92C443.489 208.466 443.295 207.643 443.05 206.36C442.569 203.834 441.972 199.968 441.261 194.713C439.841 184.228 437.997 168.459 435.727 147.384L427.773 148.241C430.045 169.332 431.898 185.189 433.333 195.787C434.049 201.074 434.668 205.114 435.192 207.859C435.45 209.211 435.706 210.364 435.966 211.228C436.088 211.633 436.266 212.166 436.529 212.668C436.654 212.907 436.902 213.346 437.32 213.779C437.695 214.167 438.708 215.062 440.312 215.062V207.062ZM435.75 147.812V134.125H427.75V147.812H435.75ZM435.75 134.125C435.75 131.653 436.311 129.721 437.282 128.168C438.257 126.609 439.799 125.192 442.132 123.999L438.493 116.876C435.118 118.6 432.378 120.923 430.5 123.925C428.616 126.936 427.75 130.388 427.75 134.125H435.75ZM440.312 124.438H447.125V116.438H440.312V124.438ZM447.786 124.383C474.787 119.862 497.342 117.625 515.5 117.625V109.625C496.741 109.625 473.713 111.93 446.464 116.492L447.786 124.383Z" fill="#101828" mask="url(#path-14-outside-5_74_11847)"/>
<mask id="path-16-outside-6_74_11847" maskUnits="userSpaceOnUse" x="511" y="114" width="122" height="131" fill="black">
<rect fill="white" x="511" y="114" width="122" height="131"/>
<path d="M577.312 118.75H579C605.875 118.75 621.833 133 626.875 161.5C628 162.958 628.562 166.938 628.562 173.438C628.562 203.062 616.604 224.146 592.688 236.688C583.521 238.979 577.812 240.125 575.562 240.125H572.188C545.854 240.125 528.188 228.146 519.188 204.188C516.896 193.938 515.75 186.542 515.75 182V176.875C515.75 164.667 524.875 148.708 543.125 129C555.208 122.167 566.604 118.75 577.312 118.75ZM534.562 178.562C537.646 207.062 550.75 221.312 573.875 221.312H575.562C591.521 221.312 602.354 209.333 608.062 185.375V171.75C608.062 154.333 597.229 142.354 575.562 135.812H573.875C555.458 135.812 542.354 150.062 534.562 178.562Z"/>
</mask>
<path d="M577.312 118.75H579C605.875 118.75 621.833 133 626.875 161.5C628 162.958 628.562 166.938 628.562 173.438C628.562 203.062 616.604 224.146 592.688 236.688C583.521 238.979 577.812 240.125 575.562 240.125H572.188C545.854 240.125 528.188 228.146 519.188 204.188C516.896 193.938 515.75 186.542 515.75 182V176.875C515.75 164.667 524.875 148.708 543.125 129C555.208 122.167 566.604 118.75 577.312 118.75ZM534.562 178.562C537.646 207.062 550.75 221.312 573.875 221.312H575.562C591.521 221.312 602.354 209.333 608.062 185.375V171.75C608.062 154.333 597.229 142.354 575.562 135.812H573.875C555.458 135.812 542.354 150.062 534.562 178.562Z" fill="#FFFBFA"/>
<path d="M626.875 161.5L622.936 162.197L623.107 163.165L623.708 163.943L626.875 161.5ZM592.688 236.688L593.658 240.568L594.122 240.452L594.545 240.23L592.688 236.688ZM519.188 204.188L515.284 205.06L515.345 205.333L515.443 205.594L519.188 204.188ZM543.125 129L541.156 125.518L540.614 125.825L540.19 126.282L543.125 129ZM534.562 178.562L530.704 177.508L530.504 178.239L530.586 178.993L534.562 178.562ZM608.062 185.375L611.954 186.302L612.062 185.845V185.375H608.062ZM575.562 135.812L576.719 131.983L576.153 131.812H575.562V135.812ZM577.312 122.75H579V114.75H577.312V122.75ZM579 122.75C591.716 122.75 601.388 126.106 608.461 132.421C615.569 138.768 620.517 148.521 622.936 162.197L630.814 160.803C628.191 145.979 622.64 134.357 613.789 126.454C604.903 118.519 593.159 114.75 579 114.75V122.75ZM623.708 163.943C623.579 163.776 623.906 164.202 624.18 166.138C624.424 167.865 624.562 170.276 624.562 173.438H632.562C632.562 170.099 632.42 167.271 632.101 165.018C631.812 162.975 631.296 160.682 630.042 159.057L623.708 163.943ZM624.562 173.438C624.562 187.711 621.684 199.676 616.114 209.495C610.556 219.294 602.189 227.189 590.83 233.145L594.545 240.23C607.103 233.645 616.673 224.726 623.073 213.442C629.462 202.179 632.562 188.789 632.562 173.438H624.562ZM591.717 232.807C587.162 233.946 583.511 234.788 580.744 235.344C577.867 235.921 576.24 236.125 575.562 236.125V244.125C577.135 244.125 579.487 243.756 582.318 243.187C585.26 242.597 589.046 241.721 593.658 240.568L591.717 232.807ZM575.562 236.125H572.188V244.125H575.562V236.125ZM572.188 236.125C559.633 236.125 549.463 233.275 541.432 227.83C533.411 222.391 527.2 214.143 522.932 202.781L515.443 205.594C520.175 218.19 527.297 227.911 536.943 234.451C546.579 240.985 558.409 244.125 572.188 244.125V236.125ZM523.091 203.315C520.802 193.077 519.75 186.06 519.75 182H511.75C511.75 187.023 512.989 194.798 515.284 205.06L523.091 203.315ZM519.75 182V176.875H511.75V182H519.75ZM519.75 176.875C519.75 171.733 521.688 165.393 526.066 157.736C530.426 150.11 537.056 141.441 546.06 131.718L540.19 126.282C530.944 136.267 523.886 145.431 519.121 153.764C514.375 162.066 511.75 169.809 511.75 176.875H519.75ZM545.094 132.482C556.75 125.89 567.469 122.75 577.312 122.75V114.75C565.739 114.75 553.667 118.443 541.156 125.518L545.094 132.482ZM530.586 178.993C532.177 193.703 536.41 205.341 543.759 213.333C551.215 221.441 561.43 225.312 573.875 225.312V217.312C563.195 217.312 555.296 214.059 549.647 207.917C543.892 201.659 540.031 191.922 538.539 178.132L530.586 178.993ZM573.875 225.312H575.562V217.312H573.875V225.312ZM575.562 225.312C584.688 225.312 592.458 221.828 598.623 215.011C604.666 208.329 609.019 198.621 611.954 186.302L604.171 184.448C601.398 196.088 597.48 204.348 592.689 209.645C588.021 214.808 582.396 217.312 575.562 217.312V225.312ZM612.062 185.375V171.75H604.062V185.375H612.062ZM612.062 171.75C612.062 162.135 609.041 153.805 602.904 147.02C596.842 140.316 587.982 135.384 576.719 131.983L574.406 139.642C584.81 142.783 592.2 147.111 596.971 152.386C601.668 157.58 604.062 163.949 604.062 171.75H612.062ZM575.562 131.812H573.875V139.812H575.562V131.812ZM573.875 131.812C563.485 131.812 554.556 135.891 547.29 143.792C540.137 151.57 534.688 162.937 530.704 177.508L538.421 179.617C542.229 165.688 547.227 155.68 553.179 149.208C559.017 142.859 565.849 139.812 573.875 139.812V131.812Z" fill="#101828" mask="url(#path-16-outside-6_74_11847)"/>
<mask id="path-18-outside-7_74_11847" maskUnits="userSpaceOnUse" x="619" y="99" width="107" height="151" fill="black">
<rect fill="white" x="619" y="99" width="107" height="151"/>
<path d="M666.5 103.375C699.542 107.042 716.062 123.562 716.062 152.938C716.062 168.854 705.229 180.812 683.562 188.812V193.938C708.646 206.479 721.188 217.875 721.188 228.125C719.604 233.833 715.625 236.688 709.25 236.688C691.542 222.896 672.729 210.354 652.812 199.062V200.812C656.229 222.062 657.938 234.583 657.938 238.375C656.812 242.958 653.396 245.25 647.688 245.25H644.25C636.833 245.25 630.562 215.625 625.438 156.375V151.188C625.438 150.062 624.875 149.5 623.75 149.5C623.75 148.375 624.312 147.812 625.438 147.812L623.75 130.688V129C623.75 115.667 635.708 107.688 659.625 105.062C662.208 105.062 664.5 104.5 666.5 103.375ZM646 134.125V168.312C646 170.604 652.25 172.312 664.75 173.438C684.125 168.896 693.812 159.208 693.812 144.375V142.688C693.812 135.562 686.417 129.854 671.625 125.562C654.542 127.812 646 130.667 646 134.125Z"/>
</mask>
<path d="M666.5 103.375C699.542 107.042 716.062 123.562 716.062 152.938C716.062 168.854 705.229 180.812 683.562 188.812V193.938C708.646 206.479 721.188 217.875 721.188 228.125C719.604 233.833 715.625 236.688 709.25 236.688C691.542 222.896 672.729 210.354 652.812 199.062V200.812C656.229 222.062 657.938 234.583 657.938 238.375C656.812 242.958 653.396 245.25 647.688 245.25H644.25C636.833 245.25 630.562 215.625 625.438 156.375V151.188C625.438 150.062 624.875 149.5 623.75 149.5C623.75 148.375 624.312 147.812 625.438 147.812L623.75 130.688V129C623.75 115.667 635.708 107.688 659.625 105.062C662.208 105.062 664.5 104.5 666.5 103.375ZM646 134.125V168.312C646 170.604 652.25 172.312 664.75 173.438C684.125 168.896 693.812 159.208 693.812 144.375V142.688C693.812 135.562 686.417 129.854 671.625 125.562C654.542 127.812 646 130.667 646 134.125Z" fill="#FFFBFA"/>
<path d="M666.5 103.375L666.941 99.3994L665.661 99.2574L664.539 99.8887L666.5 103.375ZM683.562 188.812L682.177 185.06L679.562 186.025V188.812H683.562ZM683.562 193.938H679.562V196.41L681.774 197.515L683.562 193.938ZM721.188 228.125L725.042 229.194L725.188 228.669V228.125H721.188ZM709.25 236.688L706.792 239.843L707.876 240.688H709.25V236.688ZM652.812 199.062L654.785 195.583L648.812 192.197V199.062H652.812ZM652.812 200.812H648.812V201.132L648.863 201.447L652.812 200.812ZM657.938 238.375L661.822 239.329L661.938 238.859V238.375H657.938ZM625.438 156.375H621.438V156.548L621.452 156.72L625.438 156.375ZM623.75 149.5H619.75V153.5H623.75V149.5ZM625.438 147.812V151.812H629.851L629.418 147.42L625.438 147.812ZM623.75 130.688H619.75V130.884L619.769 131.08L623.75 130.688ZM659.625 105.062V101.062H659.406L659.189 101.086L659.625 105.062ZM664.75 173.438L664.391 177.421L665.034 177.479L665.663 177.332L664.75 173.438ZM671.625 125.562L672.74 121.721L671.934 121.487L671.103 121.597L671.625 125.562ZM666.059 107.351C682.05 109.125 693.448 113.949 700.843 121.344C708.172 128.673 712.062 139.023 712.062 152.938H720.062C720.062 137.477 715.692 124.879 706.5 115.687C697.375 106.561 683.992 101.292 666.941 99.3994L666.059 107.351ZM712.062 152.938C712.062 159.888 709.733 165.904 704.973 171.158C700.135 176.499 692.65 181.193 682.177 185.06L684.948 192.565C696.142 188.432 704.907 183.147 710.902 176.529C716.975 169.826 720.062 161.904 720.062 152.938H712.062ZM679.562 188.812V193.938H687.562V188.812H679.562ZM681.774 197.515C694.172 203.714 703.21 209.507 709.091 214.851C715.053 220.268 717.188 224.681 717.188 228.125H725.188C725.188 221.319 721.051 214.909 714.471 208.93C707.811 202.878 698.036 196.702 685.351 190.36L681.774 197.515ZM717.333 227.056C716.732 229.221 715.786 230.506 714.684 231.297C713.554 232.108 711.853 232.688 709.25 232.688V240.688C713.022 240.688 716.499 239.84 719.347 237.797C722.225 235.733 724.059 232.737 725.042 229.194L717.333 227.056ZM711.708 233.532C693.843 219.618 674.868 206.969 654.785 195.583L650.84 202.542C670.59 213.74 689.24 226.174 706.792 239.843L711.708 233.532ZM648.812 199.062V200.812H656.812V199.062H648.812ZM648.863 201.447C650.569 212.06 651.845 220.467 652.693 226.681C653.556 233.008 653.938 236.803 653.938 238.375H661.938C661.938 236.156 661.465 231.794 660.62 225.6C659.759 219.294 658.472 210.815 656.762 200.178L648.863 201.447ZM654.053 237.421C653.691 238.897 653.062 239.701 652.303 240.209C651.464 240.772 650.045 241.25 647.688 241.25V249.25C651.038 249.25 654.182 248.582 656.759 246.853C659.418 245.07 661.059 242.436 661.822 239.329L654.053 237.421ZM647.688 241.25H644.25V249.25H647.688V241.25ZM644.25 241.25C644.776 241.25 644.84 241.54 644.404 241.087C643.949 240.614 643.298 239.673 642.534 238.018C641.013 234.726 639.446 229.52 637.898 222.203C634.814 207.637 631.982 185.616 629.423 156.03L621.452 156.72C624.018 186.384 626.883 208.8 630.071 223.86C631.658 231.355 633.37 237.259 635.271 241.373C636.217 243.421 637.313 245.257 638.641 246.636C639.988 248.035 641.87 249.25 644.25 249.25V241.25ZM629.438 156.375V151.188H621.438V156.375H629.438ZM629.438 151.188C629.438 150.008 629.14 148.389 627.844 147.093C626.548 145.797 624.929 145.5 623.75 145.5V153.5C623.696 153.5 622.921 153.484 622.187 152.75C621.454 152.017 621.438 151.242 621.438 151.188H629.438ZM627.75 149.5C627.75 149.554 627.734 150.329 627 151.063C626.267 151.796 625.492 151.812 625.438 151.812V143.812C624.258 143.812 622.639 144.11 621.343 145.406C620.047 146.702 619.75 148.321 619.75 149.5H627.75ZM629.418 147.42L627.731 130.295L619.769 131.08L621.457 148.205L629.418 147.42ZM627.75 130.688V129H619.75V130.688H627.75ZM627.75 129C627.75 123.79 629.969 119.659 634.939 116.343C640.139 112.873 648.364 110.323 660.061 109.039L659.189 101.086C646.97 102.427 637.257 105.179 630.499 109.688C623.511 114.351 619.75 120.877 619.75 129H627.75ZM659.625 109.062C662.807 109.062 665.79 108.364 668.461 106.861L664.539 99.8887C663.21 100.636 661.609 101.062 659.625 101.062V109.062ZM642 134.125V168.312H650V134.125H642ZM642 168.312C642 170.937 643.82 172.526 645.016 173.291C646.3 174.113 647.925 174.704 649.633 175.171C653.109 176.121 658.081 176.853 664.391 177.421L665.109 169.454C658.919 168.897 654.516 168.212 651.742 167.454C650.325 167.067 649.606 166.731 649.328 166.553C648.961 166.318 650 166.833 650 168.312H642ZM665.663 177.332C675.766 174.964 683.818 171.151 689.375 165.594C695.035 159.934 697.812 152.756 697.812 144.375H689.812C689.812 150.828 687.746 155.909 683.718 159.937C679.588 164.067 673.109 167.37 663.837 169.543L665.663 177.332ZM697.812 144.375V142.688H689.812V144.375H697.812ZM697.812 142.688C697.812 137.519 695.057 133.252 690.71 129.896C686.44 126.6 680.345 123.928 672.74 121.721L670.51 129.404C677.696 131.489 682.696 133.816 685.822 136.229C688.87 138.582 689.812 140.731 689.812 142.688H697.812ZM671.103 121.597C662.493 122.731 655.781 124.046 651.139 125.597C648.841 126.364 646.784 127.275 645.224 128.428C643.699 129.555 642 131.425 642 134.125H650C650 135.096 649.369 135.312 649.979 134.861C650.555 134.436 651.7 133.844 653.674 133.184C657.573 131.881 663.674 130.644 672.147 129.528L671.103 121.597Z" fill="#101828" mask="url(#path-18-outside-7_74_11847)"/>
<defs>
<filter id="filter0_f_74_11847" x="0" y="0" width="364" height="364" filterUnits="userSpaceOnUse" color-interpolation-filters="sRGB">
<feFlood flood-opacity="0" result="BackgroundImageFix"/>
<feBlend mode="normal" in="SourceGraphic" in2="BackgroundImageFix" result="shape"/>
<feGaussianBlur stdDeviation="75" result="effect1_foregroundBlur_74_11847"/>
</filter>
<filter id="filter1_f_74_11847" x="114" y="0" width="364" height="364" filterUnits="userSpaceOnUse" color-interpolation-filters="sRGB">
<feFlood flood-opacity="0" result="BackgroundImageFix"/>
<feBlend mode="normal" in="SourceGraphic" in2="BackgroundImageFix" result="shape"/>
<feGaussianBlur stdDeviation="75" result="effect1_foregroundBlur_74_11847"/>
</filter>
<filter id="filter2_f_74_11847" x="228" y="0" width="364" height="364" filterUnits="userSpaceOnUse" color-interpolation-filters="sRGB">
<feFlood flood-opacity="0" result="BackgroundImageFix"/>
<feBlend mode="normal" in="SourceGraphic" in2="BackgroundImageFix" result="shape"/>
<feGaussianBlur stdDeviation="75" result="effect1_foregroundBlur_74_11847"/>
</filter>
<filter id="filter3_f_74_11847" x="342" y="0" width="364" height="364" filterUnits="userSpaceOnUse" color-interpolation-filters="sRGB">
<feFlood flood-opacity="0" result="BackgroundImageFix"/>
<feBlend mode="normal" in="SourceGraphic" in2="BackgroundImageFix" result="shape"/>
<feGaussianBlur stdDeviation="75" result="effect1_foregroundBlur_74_11847"/>
</filter>
<filter id="filter4_f_74_11847" x="456" y="0" width="364" height="364" filterUnits="userSpaceOnUse" color-interpolation-filters="sRGB">
<feFlood flood-opacity="0" result="BackgroundImageFix"/>
<feBlend mode="normal" in="SourceGraphic" in2="BackgroundImageFix" result="shape"/>
<feGaussianBlur stdDeviation="75" result="effect1_foregroundBlur_74_11847"/>
</filter>
</defs>
</svg>
